<svg xmlns="http://www.w3.org/2000/svg" viewBox="0 0 39.31 48"><defs><style>.cls-1{fill:#ff3822}.cls-2{fill:#212a34;opacity:.5;isolation:isolate}</style></defs><title>Asset 1</title><g id="Layer_2" data-name="Layer 2"><g id="Layer_1-2" data-name="Layer 1"><path class="cls-1" d="M15.72 31.79l10-5.11-.01-6-10-4.59.01 15.7z"/><path class="cls-1" d="M.12 39.5V48c13-6.51 26.09-13.12 39.09-19.62v-8.5zm0 0l7.7-4.01-.12-31.7L0 0l.12 39.5z"/><path class="cls-1" d="M31.51 23.88l7.8-4v-.7L15.71 7.59v8.4l15.8 7.89zM7.7 3.79l.11 8.31 4 1.99-.11-8.4-4-1.9z"/><path class="cls-2" d="M.12 39.5l7.7-4.01V27L.12 39.5zM11.7 5.69c-1.3-.6-2.6-1.3-4-1.9v8.4l4 1.9q.16-4.2 0-8.4zm4.02 26.1l10-5.11-.01-5.89-10-4.8.01 15.8z"/></g></g></svg>