<svg width="231" height="27" viewBox="0 0 231 27" xmlns="http://www.w3.org/2000/svg" xmlns:xlink="http://www.w3.org/1999/xlink"><title>Group</title><defs><path id="a" d="M0 26.994h230.784V.333H0z"/><path id="c" d="M0 26.994h230.784V.333H0z"/><path id="e" d="M0 26.994h230.784V.333H0z"/><path id="g" d="M0 26.994h230.784V.333H0z"/><path id="i" d="M0 26.994h230.784V.333H0z"/><path id="k" d="M0 26.994h230.784V.333H0z"/></defs><g fill="none" fill-rule="evenodd"><path d="M0 .334l13.537 19.914L28.263.334H0zm8.32 4.405h11.203l-5.84 7.892L8.32 4.739zM4.34 26.994h19.741v-4.405H4.34z" fill="#00B3E6" fill-rule="nonzero"/><path fill="#FFF" fill-rule="nonzero" d="M45.35 22.58v-7.145h-6.856v7.145h-4.13V4.768h4.13v6.943h6.856V4.768h4.13V22.58zm9.225 0V4.768h11.276v3.79h-7.145v3.153h6.521v3.623h-6.521v3.478h7.145v3.768zm16.131 0V4.768h4.13v14.044h7.146v3.768zm14.871 0V4.768h4.13v14.044h7.146v3.768zm22.696.298c-5.514 0-9.044-3.964-9.044-9.19 0-5.225 3.696-9.225 9.218-9.225s9.045 3.966 9.045 9.211a8.862 8.862 0 0 1-9.219 9.204zm.074-14.704c-2.82 0-4.72 2.312-4.72 5.515 0 3.202 1.9 5.514 4.72 5.514 2.818 0 4.717-2.333 4.717-5.514 0-3.182-1.899-5.522-4.717-5.522v.007zm18.051 14.704a11.998 11.998 0 0 1-6-1.827l1.144-3.738a8.878 8.878 0 0 0 4.986 1.724c1.45 0 2.022-.682 2.022-1.558 0-.877-.464-1.558-3.188-2.653-3.14-1.26-4.232-3.087-4.232-5.225 0-2.602 2.116-5.13 6.268-5.13a9.756 9.756 0 0 1 4.985 1.384l-1.05 3.682a8.009 8.009 0 0 0-3.942-1.45c-1.508 0-2.117.724-2.117 1.45 0 1.166.9 1.557 3.138 2.5 3.326 1.413 4.348 3.014 4.348 5.297-.022 2.841-2.086 5.544-6.362 5.544"/><mask id="b" fill="#fff"><use xlink:href="#a"/></mask><path fill="#FFF" fill-rule="nonzero" mask="url(#b)" d="M136.963 22.58h4.13V4.77h-4.13z"/><mask id="d" fill="#fff"><use xlink:href="#c"/></mask><path d="M161.34 12.573v8.508a12.836 12.836 0 0 1-6.752 1.797c-5.226 0-9.356-3.74-9.356-9.19 0-5.449 4.173-9.225 9.565-9.225 2.09 0 4.145.527 5.979 1.53l-1.724 3.326a8.697 8.697 0 0 0-3.987-1c-3.55 0-5.443 2.211-5.443 5.348 0 3.406 2.283 5.515 5.204 5.515a5.187 5.187 0 0 0 2.623-.485v-2.638h-3.572v-3.486h7.464z" fill="#FFF" fill-rule="nonzero" mask="url(#d)"/><mask id="f" fill="#fff"><use xlink:href="#e"/></mask><path fill="#FFF" fill-rule="nonzero" mask="url(#f)" d="M180.755 22.922l-10.747-9.646v9.304h-4.101V4.522l.557-.102L177.067 14V4.768h4.13v18.118z"/><mask id="h" fill="#fff"><use xlink:href="#g"/></mask><path d="M199.83 10.214l-2.527 5.952h5.054l-2.526-5.952zm5.249 12.439l-1.726-4.08h-7.045l-1.725 4.08h-3.135l8.213-18.05h.436l8.187 18.05h-3.205z" fill="#D1D1D1" fill-rule="nonzero" mask="url(#h)"/><mask id="j" fill="#fff"><use xlink:href="#i"/></mask><path d="M216.644 7.518c-.681 0-1.361.048-1.993.145v6.512c.607.048 1.167.096 1.701.096 2.746 0 4.008-1.433 4.008-3.45 0-1.748-1.238-3.303-3.716-3.303m-.218 9.401c-.584 0-1.192-.048-1.775-.072v5.806h-3.036V5.017a36.685 36.685 0 0 1 4.519-.294c4.882 0 7.385 2.674 7.385 6.002 0 3.62-2.55 6.194-7.093 6.194" fill="#D1D1D1" fill-rule="nonzero" mask="url(#j)"/><mask id="l" fill="#fff"><use xlink:href="#k"/></mask><path fill="#D1D1D1" fill-rule="nonzero" mask="url(#l)" d="M227.748 22.653h3.036V4.846h-3.036z"/></g></svg>